solid OpenSCAD_Model
  facet normal -1 0 0
    outer loop
      vertex 0 8 0
      vertex 0 27 8
      vertex 0 27 0
    endloop
  endfacet
  facet normal -1 -0 0
    outer loop
      vertex 0 27 8
      vertex 0 8 0
      vertex 0 8 8
    endloop
  endfacet
  facet normal 0 0 1
    outer loop
      vertex 6 9.5 8
      vertex 4 8 8
      vertex 6 1.5 8
    endloop
  endfacet
  facet normal -0 0 1
    outer loop
      vertex 1.5 9.5 8
      vertex 4 8 8
      vertex 6 9.5 8
    endloop
  endfacet
  facet normal 0 0 1
    outer loop
      vertex 1.5 9.5 8
      vertex 0 8 8
      vertex 4 8 8
    endloop
  endfacet
  facet normal 0 0 1
    outer loop
      vertex 0 8 8
      vertex 1.5 9.5 8
      vertex 0 27 8
    endloop
  endfacet
  facet normal 0 0 1
    outer loop
      vertex 66 35 8
      vertex 64 33.5 8
      vertex 66 27 8
    endloop
  endfacet
  facet normal 0 0 1
    outer loop
      vertex 66 35 8
      vertex 6 33.5 8
      vertex 64 33.5 8
    endloop
  endfacet
  facet normal -0 0 1
    outer loop
      vertex 4 35 8
      vertex 6 33.5 8
      vertex 66 35 8
    endloop
  endfacet
  facet normal 0 0 1
    outer loop
      vertex 4 27 8
      vertex 6 33.5 8
      vertex 4 35 8
    endloop
  endfacet
  facet normal 0 0 1
    outer loop
      vertex 6 33.5 8
      vertex 4 27 8
      vertex 6 25.5 8
    endloop
  endfacet
  facet normal 0 0 1
    outer loop
      vertex 4 27 8
      vertex 1.5 25.5 8
      vertex 6 25.5 8
    endloop
  endfacet
  facet normal 0 0 1
    outer loop
      vertex 1.5 25.5 8
      vertex 0 27 8
      vertex 1.5 9.5 8
    endloop
  endfacet
  facet normal -0 0 1
    outer loop
      vertex 0 27 8
      vertex 1.5 25.5 8
      vertex 4 27 8
    endloop
  endfacet
  facet normal 0 0 1
    outer loop
      vertex 70 27 8
      vertex 68.5 25.5 8
      vertex 70 8 8
    endloop
  endfacet
  facet normal -0 0 1
    outer loop
      vertex 66 27 8
      vertex 68.5 25.5 8
      vertex 70 27 8
    endloop
  endfacet
  facet normal 0 0 1
    outer loop
      vertex 66 27 8
      vertex 64 25.5 8
      vertex 68.5 25.5 8
    endloop
  endfacet
  facet normal 0 0 1
    outer loop
      vertex 64 25.5 8
      vertex 66 27 8
      vertex 64 33.5 8
    endloop
  endfacet
  facet normal -0 0 1
    outer loop
      vertex 68.5 9.5 8
      vertex 70 8 8
      vertex 68.5 25.5 8
    endloop
  endfacet
  facet normal 0 0 1
    outer loop
      vertex 68.5 9.5 8
      vertex 66 8 8
      vertex 70 8 8
    endloop
  endfacet
  facet normal -0 0 1
    outer loop
      vertex 64 9.5 8
      vertex 66 8 8
      vertex 68.5 9.5 8
    endloop
  endfacet
  facet normal 0 0 1
    outer loop
      vertex 64 1.5 8
      vertex 66 8 8
      vertex 64 9.5 8
    endloop
  endfacet
  facet normal 0 0 1
    outer loop
      vertex 66 8 8
      vertex 64 1.5 8
      vertex 66 0 8
    endloop
  endfacet
  facet normal -0 0 1
    outer loop
      vertex 6 1.5 8
      vertex 66 0 8
      vertex 64 1.5 8
    endloop
  endfacet
  facet normal 0 0 1
    outer loop
      vertex 6 1.5 8
      vertex 4 0 8
      vertex 66 0 8
    endloop
  endfacet
  facet normal 0 0 1
    outer loop
      vertex 4 0 8
      vertex 6 1.5 8
      vertex 4 8 8
    endloop
  endfacet
  facet normal 1 -0 0
    outer loop
      vertex 70 8 8
      vertex 70 27 0
      vertex 70 27 8
    endloop
  endfacet
  facet normal 1 0 0
    outer loop
      vertex 70 27 0
      vertex 70 8 8
      vertex 70 8 0
    endloop
  endfacet
  facet normal 0 1 -0
    outer loop
      vertex 66 35 0
      vertex 4 35 8
      vertex 66 35 8
    endloop
  endfacet
  facet normal 0 1 0
    outer loop
      vertex 4 35 8
      vertex 66 35 0
      vertex 4 35 0
    endloop
  endfacet
  facet normal 0 0 -1
    outer loop
      vertex 0 8 0
      vertex 4 27 0
      vertex 4 8 0
    endloop
  endfacet
  facet normal -0 0 -1
    outer loop
      vertex 4 27 0
      vertex 0 8 0
      vertex 0 27 0
    endloop
  endfacet
  facet normal 0 0 -1
    outer loop
      vertex 64 1.5 0
      vertex 66 8 0
      vertex 66 0 0
    endloop
  endfacet
  facet normal -0 0 -1
    outer loop
      vertex 66 8 0
      vertex 64 1.5 0
      vertex 66 27 0
    endloop
  endfacet
  facet normal 0 0 -1
    outer loop
      vertex 64 33.5 0
      vertex 66 27 0
      vertex 64 1.5 0
    endloop
  endfacet
  facet normal 0 0 -1
    outer loop
      vertex 66 0 0
      vertex 6 1.5 0
      vertex 64 1.5 0
    endloop
  endfacet
  facet normal 0 0 -1
    outer loop
      vertex 4 8 0
      vertex 6 1.5 0
      vertex 4 0 0
    endloop
  endfacet
  facet normal 0 0 -1
    outer loop
      vertex 4 0 0
      vertex 6 1.5 0
      vertex 66 0 0
    endloop
  endfacet
  facet normal 0 0 -1
    outer loop
      vertex 66 8 0
      vertex 70 27 0
      vertex 70 8 0
    endloop
  endfacet
  facet normal -0 0 -1
    outer loop
      vertex 70 27 0
      vertex 66 8 0
      vertex 66 27 0
    endloop
  endfacet
  facet normal 0 0 -1
    outer loop
      vertex 66 27 0
      vertex 64 33.5 0
      vertex 66 35 0
    endloop
  endfacet
  facet normal 0 0 -1
    outer loop
      vertex 6 33.5 0
      vertex 66 35 0
      vertex 64 33.5 0
    endloop
  endfacet
  facet normal 0 0 -1
    outer loop
      vertex 6 1.5 0
      vertex 4 8 0
      vertex 6 33.5 0
    endloop
  endfacet
  facet normal 0 0 -1
    outer loop
      vertex 4 27 0
      vertex 6 33.5 0
      vertex 4 8 0
    endloop
  endfacet
  facet normal 0 0 -1
    outer loop
      vertex 6 33.5 0
      vertex 4 35 0
      vertex 66 35 0
    endloop
  endfacet
  facet normal 0 0 -1
    outer loop
      vertex 4 35 0
      vertex 6 33.5 0
      vertex 4 27 0
    endloop
  endfacet
  facet normal 0 -1 0
    outer loop
      vertex 4 0 0
      vertex 66 0 8
      vertex 4 0 8
    endloop
  endfacet
  facet normal 0 -1 -0
    outer loop
      vertex 66 0 8
      vertex 4 0 0
      vertex 66 0 0
    endloop
  endfacet
  facet normal 1 0 0
    outer loop
      vertex 6 9.5 8
      vertex 6 1.5 8
      vertex 6 9.5 3
    endloop
  endfacet
  facet normal 1 0 0
    outer loop
      vertex 6 25.5 3
      vertex 6 33.5 8
      vertex 6 25.5 8
    endloop
  endfacet
  facet normal 1 0 0
    outer loop
      vertex 6 33.5 8
      vertex 6 25.5 3
      vertex 6 33.5 0
    endloop
  endfacet
  facet normal 1 -0 0
    outer loop
      vertex 6 9.5 3
      vertex 6 33.5 0
      vertex 6 25.5 3
    endloop
  endfacet
  facet normal 1 0 0
    outer loop
      vertex 6 9.5 3
      vertex 6 1.5 0
      vertex 6 33.5 0
    endloop
  endfacet
  facet normal 1 0 0
    outer loop
      vertex 6 1.5 0
      vertex 6 9.5 3
      vertex 6 1.5 8
    endloop
  endfacet
  facet normal -1 0 0
    outer loop
      vertex 64 33.5 0
      vertex 64 25.5 3
      vertex 64 33.5 8
    endloop
  endfacet
  facet normal -1 0 0
    outer loop
      vertex 64 33.5 0
      vertex 64 9.5 3
      vertex 64 25.5 3
    endloop
  endfacet
  facet normal -1 0 0
    outer loop
      vertex 64 1.5 0
      vertex 64 9.5 3
      vertex 64 33.5 0
    endloop
  endfacet
  facet normal -1 0 0
    outer loop
      vertex 64 1.5 8
      vertex 64 9.5 3
      vertex 64 1.5 0
    endloop
  endfacet
  facet normal -1 0 0
    outer loop
      vertex 64 9.5 3
      vertex 64 1.5 8
      vertex 64 9.5 8
    endloop
  endfacet
  facet normal -1 -0 0
    outer loop
      vertex 64 33.5 8
      vertex 64 25.5 3
      vertex 64 25.5 8
    endloop
  endfacet
  facet normal 0 -1 0
    outer loop
      vertex 6 33.5 0
      vertex 64 33.5 8
      vertex 6 33.5 8
    endloop
  endfacet
  facet normal 0 -1 -0
    outer loop
      vertex 64 33.5 8
      vertex 6 33.5 0
      vertex 64 33.5 0
    endloop
  endfacet
  facet normal 0 1 -0
    outer loop
      vertex 64 1.5 0
      vertex 6 1.5 8
      vertex 64 1.5 8
    endloop
  endfacet
  facet normal 0 1 0
    outer loop
      vertex 6 1.5 8
      vertex 64 1.5 0
      vertex 6 1.5 0
    endloop
  endfacet
  facet normal -1 0 0
    outer loop
      vertex 4 0 0
      vertex 4 8 8
      vertex 4 8 0
    endloop
  endfacet
  facet normal -1 -0 0
    outer loop
      vertex 4 8 8
      vertex 4 0 0
      vertex 4 0 8
    endloop
  endfacet
  facet normal 0 -1 0
    outer loop
      vertex 0 8 0
      vertex 4 8 8
      vertex 0 8 8
    endloop
  endfacet
  facet normal 0 -1 -0
    outer loop
      vertex 4 8 8
      vertex 0 8 0
      vertex 4 8 0
    endloop
  endfacet
  facet normal 1 -0 0
    outer loop
      vertex 66 0 8
      vertex 66 8 0
      vertex 66 8 8
    endloop
  endfacet
  facet normal 1 0 0
    outer loop
      vertex 66 8 0
      vertex 66 0 8
      vertex 66 0 0
    endloop
  endfacet
  facet normal 0 -1 0
    outer loop
      vertex 66 8 0
      vertex 70 8 8
      vertex 66 8 8
    endloop
  endfacet
  facet normal 0 -1 -0
    outer loop
      vertex 70 8 8
      vertex 66 8 0
      vertex 70 8 0
    endloop
  endfacet
  facet normal -1 0 0
    outer loop
      vertex 4 27 0
      vertex 4 35 8
      vertex 4 35 0
    endloop
  endfacet
  facet normal -1 -0 0
    outer loop
      vertex 4 35 8
      vertex 4 27 0
      vertex 4 27 8
    endloop
  endfacet
  facet normal 0 1 -0
    outer loop
      vertex 4 27 0
      vertex 0 27 8
      vertex 4 27 8
    endloop
  endfacet
  facet normal 0 1 0
    outer loop
      vertex 0 27 8
      vertex 4 27 0
      vertex 0 27 0
    endloop
  endfacet
  facet normal 1 -0 0
    outer loop
      vertex 66 27 8
      vertex 66 35 0
      vertex 66 35 8
    endloop
  endfacet
  facet normal 1 0 0
    outer loop
      vertex 66 35 0
      vertex 66 27 8
      vertex 66 27 0
    endloop
  endfacet
  facet normal 0 1 -0
    outer loop
      vertex 70 27 0
      vertex 66 27 8
      vertex 70 27 8
    endloop
  endfacet
  facet normal 0 1 0
    outer loop
      vertex 66 27 8
      vertex 70 27 0
      vertex 66 27 0
    endloop
  endfacet
  facet normal 1 -0 0
    outer loop
      vertex 1.5 9.5 8
      vertex 1.5 25.5 3
      vertex 1.5 25.5 8
    endloop
  endfacet
  facet normal 1 0 0
    outer loop
      vertex 1.5 25.5 3
      vertex 1.5 9.5 8
      vertex 1.5 9.5 3
    endloop
  endfacet
  facet normal -0 0 1
    outer loop
      vertex 1.5 25.5 3
      vertex 6 9.5 3
      vertex 6 25.5 3
    endloop
  endfacet
  facet normal 0 0 1
    outer loop
      vertex 6 9.5 3
      vertex 1.5 25.5 3
      vertex 1.5 9.5 3
    endloop
  endfacet
  facet normal 0 1 -0
    outer loop
      vertex 6 9.5 3
      vertex 1.5 9.5 8
      vertex 6 9.5 8
    endloop
  endfacet
  facet normal 0 1 0
    outer loop
      vertex 1.5 9.5 8
      vertex 6 9.5 3
      vertex 1.5 9.5 3
    endloop
  endfacet
  facet normal 0 -1 0
    outer loop
      vertex 1.5 25.5 3
      vertex 6 25.5 8
      vertex 1.5 25.5 8
    endloop
  endfacet
  facet normal 0 -1 -0
    outer loop
      vertex 6 25.5 8
      vertex 1.5 25.5 3
      vertex 6 25.5 3
    endloop
  endfacet
  facet normal -1 0 0
    outer loop
      vertex 68.5 9.5 3
      vertex 68.5 25.5 8
      vertex 68.5 25.5 3
    endloop
  endfacet
  facet normal -1 -0 0
    outer loop
      vertex 68.5 25.5 8
      vertex 68.5 9.5 3
      vertex 68.5 9.5 8
    endloop
  endfacet
  facet normal -0 0 1
    outer loop
      vertex 64 25.5 3
      vertex 68.5 9.5 3
      vertex 68.5 25.5 3
    endloop
  endfacet
  facet normal 0 0 1
    outer loop
      vertex 68.5 9.5 3
      vertex 64 25.5 3
      vertex 64 9.5 3
    endloop
  endfacet
  facet normal 0 1 -0
    outer loop
      vertex 68.5 9.5 3
      vertex 64 9.5 8
      vertex 68.5 9.5 8
    endloop
  endfacet
  facet normal 0 1 0
    outer loop
      vertex 64 9.5 8
      vertex 68.5 9.5 3
      vertex 64 9.5 3
    endloop
  endfacet
  facet normal 0 -1 0
    outer loop
      vertex 64 25.5 3
      vertex 68.5 25.5 8
      vertex 64 25.5 8
    endloop
  endfacet
  facet normal 0 -1 -0
    outer loop
      vertex 68.5 25.5 8
      vertex 64 25.5 3
      vertex 68.5 25.5 3
    endloop
  endfacet
endsolid OpenSCAD_Model
